<svg xmlns="http://www.w3.org/2000/svg" viewBox="0 0 160.1 196.89"><defs><style>.cls-1{fill:#dc153d;}.cls-2{fill:#dc173e;}</style></defs><title>logo_bihesewa</title><g id="Layer_2" data-name="Layer 2"><g id="Layer_1-2" data-name="Layer 1"><path class="cls-1" d="M105.17,48.83c-.89-.08-1.68-.14-2.46-.23-3.54-.38-7.08-.78-10.62-1.15Q87.8,47,83.52,46.6c-1.19-.11-.92,0-1.23-1a35.77,35.77,0,0,0-6.37-12,26,26,0,0,0-16.74-9.69,32.23,32.23,0,0,0-16.72,1.76c-7,2.71-11.89,7.76-15.21,14.43a27.84,27.84,0,0,0-2.91,12c-.09,4.39-.09,8.79-.1,13.19q0,19.78-.05,39.56,0,13.24-.07,26.48a11.86,11.86,0,0,0,.12,2.07c.43,2.46,1.59,3.55,4.09,3.74.62,0,1.25,0,1.87,0H77c9.41,0,18.83,0,28.24,0,2.28,0,4.56-.05,6.84-.27,10.23-1,17.08-6.45,21.22-15.65,4.29-11.66,2.76-22.36-5.3-32a45.69,45.69,0,0,0-11.27-9.4A57.67,57.67,0,0,0,97.28,72a83.32,83.32,0,0,0-8.42-1.16c-5.21-.45-10.43-.64-15.66-.68a104.77,104.77,0,0,0-10.89.42c-1.51.15-3,.28-4.54.46-.91.1-.87.13-.92-.74q-.27-5.6-.57-11.2c-.13-2.45-.26-4.91-.38-7.36,0-.88,0-.88.84-1A125,125,0,0,1,70.11,49a138.77,138.77,0,0,1,15.24-.45c3,.1,5.95.23,8.91.52,12,1.17,23.68,3.84,34.36,9.74a60.63,60.63,0,0,1,29.09,35.08A49.18,49.18,0,0,1,160,113a57.34,57.34,0,0,1-4.54,19.07,49.53,49.53,0,0,1-12.23,16.58,44.54,44.54,0,0,1-22.57,11.11,85.44,85.44,0,0,1-15,1.26c-14.43.12-28.87.13-43.3.12l-45.69-.06c-3.53,0-7.06,0-10.59.05a11.51,11.51,0,0,1-3-.35A3.65,3.65,0,0,1,.32,158,10.05,10.05,0,0,1,0,155.45q0-14,0-27.93c0-9.59,0-19.18,0-28.76q0-19.31,0-38.63c0-3.5-.06-7,.11-10.48a50.11,50.11,0,0,1,10.1-28.29A52.3,52.3,0,0,1,43,.82,38.24,38.24,0,0,1,53.17.08a45.35,45.35,0,0,1,15,3.79A63.54,63.54,0,0,1,87,16.63a66,66,0,0,1,14.5,20.2,53,53,0,0,1,3.58,11C105.09,48.12,105.11,48.4,105.17,48.83Z"/><path class="cls-2" d="M1.66,183.72q0-5.45,0-10.9c0-.84,0-.85.84-.85,3.18,0,6.37.07,9.55,0a6.62,6.62,0,0,1,6,9.41,1.16,1.16,0,0,0,.21,1.5,7.18,7.18,0,0,1,1.18,8,7.22,7.22,0,0,1-6.75,4.55c-3.42.08-6.85,0-10.27,0-.72,0-.73,0-.73-.75Q1.65,189.22,1.66,183.72ZM10,185.27c-.86,0-1.73,0-2.59,0-.51,0-.64.18-.63.66,0,1.28,0,2.55,0,3.83,0,.49.15.68.65.66,1,0,1.93,0,2.9,0a15.22,15.22,0,0,0,2.38-.06,2.54,2.54,0,0,0-.33-5.06C11.62,185.25,10.83,185.27,10,185.27Zm-.4-5.18c.73,0,1.45,0,2.18,0a1.53,1.53,0,0,0,1.7-1.43c0-.9-.62-1.49-1.7-1.52-.93,0-1.87,0-2.8,0-.68,0-1.6-.3-2,.12s-.12,1.51-.19,2.29c0,.39.12.56.53.55C8.11,180.07,8.87,180.09,9.63,180.09Z"/><path class="cls-2" d="M125.33,177.25c.24-.13.41,0,.59.12,1.3.64,2.59,1.31,3.9,1.93a1,1,0,0,1,.63,1c0,2.53,0,5.05,0,7.58a6.1,6.1,0,0,0,0,.83,1.8,1.8,0,0,0,1.8,1.55,1.76,1.76,0,0,0,1.77-1.57,7.56,7.56,0,0,0,0-.93q0-4.78,0-9.55c0-.24,0-.48,0-.73s.18-.48.52-.48h4.15c.36,0,.5.17.49.51,0,.14,0,.28,0,.42,0,3.53,0,7.06,0,10.59a7,7,0,0,1-5.69,6.83,6.6,6.6,0,0,1-5-1,.94.94,0,0,0-1.26,0,6.55,6.55,0,0,1-7.08.27,6.64,6.64,0,0,1-3.64-6.1q0-5.29,0-10.59c0-.89,0-.9.91-.9h3.43c.79,0,.81,0,.81.8,0,2.66,0,5.33,0,8,0,.93,0,1.87,0,2.8a1.72,1.72,0,0,0,1.57,1.65,1.81,1.81,0,0,0,1.93-1.25,3.81,3.81,0,0,0,.09-1c0-3.29,0-6.57,0-9.86A1.92,1.92,0,0,1,125.33,177.25Z"/><path class="cls-2" d="M159.09,196.87a1.17,1.17,0,0,1-.9-.23c-.93-.45-1.88-.88-2.78-1.39a3,3,0,0,0-2.7-.25,9.2,9.2,0,1,1,6.37-8.95C159.1,189.65,159.09,193.25,159.09,196.87Zm-9.2-6.55a4,4,0,0,0,4.05-4.06,4.07,4.07,0,1,0-8.14,0A4,4,0,0,0,149.88,190.32Z"/><path class="cls-2" d="M30,171.94c1.67.84,3.15,1.6,4.64,2.32a.82.82,0,0,1,.51.89c0,.79,0,1.58,0,2.41.68-.14,1.28-.29,1.89-.4a8.22,8.22,0,0,1,9.36,8.05c-.07,3.15,0,6.3,0,9.45,0,.8,0,.81-.77.82H42.06c-.85,0-.86,0-.86-.85q0-4.46,0-8.93a3.87,3.87,0,0,0-.23-1.63,3.12,3.12,0,0,0-3.17-1.87,3.18,3.18,0,0,0-2.65,2.8c0,.27,0,.55,0,.83q0,4.41,0,8.82c0,.8,0,.81-.77.82-1.25,0-2.49,0-3.74,0-.51,0-.7-.18-.64-.67a4.66,4.66,0,0,0,0-.52q0-10.59,0-21.18Z"/><path class="cls-2" d="M53.19,187.55a3.86,3.86,0,0,0,5,2.59,5.12,5.12,0,0,1,1.72-.27h5.26c.14.46-.13.72-.29,1A9.2,9.2,0,0,1,53.95,195a9.29,9.29,0,0,1-6.09-10,9.15,9.15,0,0,1,18.2,1.7c-.06.78,0,.8-.84.8h-12Zm.28-3.28a36.11,36.11,0,0,0,6.88,0A3.9,3.9,0,0,0,53.47,184.27Z"/><path class="cls-2" d="M101.57,187.55a3.69,3.69,0,0,0,3.14,2.74,4.25,4.25,0,0,0,2.14-.24,1.61,1.61,0,0,1,.59-.16h6.08c.16.37-.06.59-.18.82a9.13,9.13,0,0,1-17.17-4.2,9.14,9.14,0,1,1,18.26.35c0,.68-.05.7-.84.7h-12Zm.22-3.11c1.25,0,2.38,0,3.52,0a30.29,30.29,0,0,0,3.48-.07A3.92,3.92,0,0,0,101.79,184.44Z"/><path class="cls-2" d="M93.33,178.22H88.8c-.3,0-.53,0-.65-.37a1.14,1.14,0,0,0-.64-.65,1.26,1.26,0,0,0-1.6.57,1.21,1.21,0,0,0,.43,1.63c.65.39,1.35.7,2,1s1.43.69,2.14,1.06a7.43,7.43,0,1,1-10.62,8.67s0-.06,0-.1c-.4-1.74-.21-1.37,1-1.39,1,0,1.94,0,2.91,0a1.39,1.39,0,0,1,1.44.7,2.16,2.16,0,0,0,2.93.66,2.29,2.29,0,0,0,.93-3,2.4,2.4,0,0,0-1.2-1.1A35.77,35.77,0,0,1,84,184a6.63,6.63,0,0,1-3.26-4.23,6.46,6.46,0,0,1,6.31-7.79C90.78,172,93.53,175.3,93.33,178.22Z"/><path class="cls-2" d="M27.74,177.24a1.56,1.56,0,0,1,.09.89q0,8.15,0,16.3c0,.21,0,.42,0,.62s-.14.43-.44.43H23.14c-.3,0-.45-.12-.44-.43s0-.42,0-.62c0-4.6,0-9.2,0-13.81a1.29,1.29,0,0,1,.86-1.42c1.17-.51,2.29-1.14,3.43-1.71C27.21,177.37,27.43,177.16,27.74,177.24Z"/><path class="cls-2" d="M25.27,172A2.3,2.3,0,1,1,23,174.27,2.28,2.28,0,0,1,25.27,172Z"/></g></g></svg>